<svg width="22" height="15" viewBox="0 0 22 15" fill="none" xmlns="http://www.w3.org/2000/svg">
<path d="M17.1459 4.69125C16.3521 1.9275 13.8873 0 10.9998 0C8.89889 0 6.92994 1.06688 5.73647 2.81719C2.27339 2.9475 -0.444458 6.11437 0.0606124 9.78562C0.478602 12.8212 3.15795 15 6.15446 15H8.24991H10.0832V9.375H8.17016H8.09866C7.75767 9.375 7.58717 8.95406 7.82825 8.7075L10.7294 5.74031C10.8788 5.5875 11.1208 5.5875 11.2703 5.74031L14.1714 8.7075C14.4125 8.95406 14.242 9.375 13.901 9.375H13.8295H11.9165V15H13.7498H16.7435C19.3477 15 21.6815 13.0753 21.9684 10.4288C22.2966 7.39031 20.026 4.79906 17.1459 4.69125Z" fill="white"/>
</svg>
