<svg width="34" height="25" viewBox="0 0 34 25" fill="none" xmlns="http://www.w3.org/2000/svg">
<path d="M26.5235 1.46622C26.2652 1.47391 26.0205 1.58152 25.8399 1.76409L15.8971 11.6033C15.5087 11.9876 15.5087 12.6103 15.8971 12.9946L25.8399 22.8338C26.0885 23.0913 26.4594 23.1951 26.809 23.1048C27.1566 23.0145 27.4285 22.7454 27.5197 22.4014C27.611 22.0555 27.5061 21.6885 27.2459 21.4425L18.006 12.299L27.2459 3.15541C27.5391 2.87292 27.6285 2.44053 27.4692 2.0658C27.308 1.69298 26.9333 1.45469 26.5235 1.46622Z" fill="#A0B2BA" fill-opacity="0.74"/>
<path d="M7.4765 1.46622C7.73479 1.47391 7.97947 1.58152 8.16008 1.76409L18.1029 11.6033C18.4913 11.9876 18.4913 12.6103 18.1029 12.9946L8.16008 22.8338C7.9115 23.0913 7.54059 23.1951 7.19104 23.1048C6.84342 23.0145 6.57155 22.7454 6.48028 22.4014C6.389 22.0555 6.49387 21.6885 6.75409 21.4425L15.994 12.299L6.75409 3.15541C6.46086 2.87292 6.37153 2.44053 6.53077 2.0658C6.69195 1.69298 7.06675 1.45469 7.4765 1.46622Z" fill="#A0B2BA" fill-opacity="0.74"/>
</svg>
