<svg width="25" height="26" viewBox="0 0 25 26" fill="none" xmlns="http://www.w3.org/2000/svg">
<path d="M5.83324 3.46606C5.62001 3.46606 5.40655 3.55054 5.24405 3.71997L3.57738 5.4533C3.25155 5.79217 3.25155 6.34082 3.57738 6.67882L9.65486 12.9994L3.57738 19.32C3.25155 19.6588 3.25155 20.2075 3.57738 20.5455L5.24405 22.2788C5.56988 22.6177 6.09744 22.6177 6.42244 22.2788L12.4999 15.9582L18.5774 22.2788C18.9024 22.6177 19.4308 22.6177 19.7558 22.2788L21.4224 20.5455C21.7483 20.2066 21.7483 19.658 21.4224 19.32L15.345 12.9994L21.4224 6.67882C21.7483 6.34082 21.7483 5.7913 21.4224 5.4533L19.7558 3.71997C19.4299 3.3811 18.9024 3.3811 18.5774 3.71997L12.4999 10.0405L6.42244 3.71997C6.25952 3.55054 6.04647 3.46606 5.83324 3.46606V3.46606Z" fill="#6B778C"/>
</svg>
