<svg width="40" height="22" viewBox="0 0 40 22" fill="none" xmlns="http://www.w3.org/2000/svg">
<path d="M20.0001 0C8.71492 0 0.558669 9.95312 0.218825 10.375C-0.0624253 10.7266 -0.0741443 11.2305 0.187575 11.5938C0.492263 12.0195 7.75007 22 20.0001 22C32.2501 22 39.5118 12.0195 39.8126 11.5938C40.0743 11.2305 40.0626 10.7266 39.7813 10.375C39.4415 9.95312 31.2852 0 20.0001 0ZM20.0001 2C24.9727 2 29.0001 6.02734 29.0001 11C29.0001 15.9727 24.9727 20 20.0001 20C15.0274 20 11.0001 15.9727 11.0001 11C11.0001 6.02734 15.0274 2 20.0001 2ZM20.0001 6C17.2384 6 15.0001 8.23828 15.0001 11C15.0001 13.7617 17.2384 16 20.0001 16C22.7618 16 25.0001 13.7617 25.0001 11C25.0001 10.3672 24.8712 9.77344 24.6563 9.21875C24.2852 9.79297 23.6407 10.1562 22.9063 10.1562C21.754 10.1562 20.8438 9.24219 20.8438 8.09375C20.8438 7.35938 21.2071 6.71484 21.7813 6.34375C21.2227 6.12891 20.6329 6 20.0001 6Z" fill="#B4B4B4"/>
</svg>
