<svg width="18" height="19" viewBox="0 0 18 19" fill="none" xmlns="http://www.w3.org/2000/svg">
<path d="M14.8712 0C14.4874 0 14.1035 0.154721 13.8107 0.463867L12.7501 1.58333L16.5001 5.54167L17.5607 4.4222C18.1464 3.80391 18.1464 2.80156 17.5607 2.18327L15.9318 0.463867C15.6389 0.154721 15.255 0 14.8712 0ZM11.2501 3.16667L2.25002 12.6667L3.37503 13.0625L3.75003 15.0417L5.62505 15.4375L6.00005 16.625L15.0001 7.125L11.2501 3.16667ZM0.864269 15.9539L0.0278364 18.4526C0.00922881 18.5007 -0.000228351 18.5522 4.18634e-06 18.6042C4.18634e-06 18.7091 0.0395134 18.8098 0.10984 18.8841C0.180167 18.9583 0.27555 19 0.375007 19C0.42157 19.0002 0.467768 18.9913 0.511239 18.9737L2.88577 18.0877L0.864269 15.9539Z" fill="#6B778C"/>
</svg>
